{"title":"The.Jungle.Book.2016.CAM.XviD.AC3-VAiN","uid":14271686,"size":1491520640,"categoryP":"video","categoryS":"movies","magnet":"?xt=urn:btih:c8a5c3d0e9810d886f0f2b39caf44e523b1ac2c0&amp;dn=The.Jungle.Book.2016.CAM.XviD.AC3-VAiN&amp;tr=udp%3A%2F%2Ftracker.leechers-paradise.org%3A6969&amp;tr=udp%3A%2F%2Fzer0day.ch%3A1337&amp;tr=udp%3A%2F%2Fopen.demonii.com%3A1337&amp;tr=udp%3A%2F%2Ftracker.coppersurfer.tk%3A6969&amp;tr=udp%3A%2F%2Fexodus.desync.com%3A6969","seeders":13,"leechers":3,"uploader":"xxxlavalxxx","files":4,"time":1460317956,"description":"http://extraimago.com/image/aqhV\r\n \nhttp://www.imdb.com/title/tt3040964/\r\n\r\n\r\nAn orphan boy is raised in the jungle with the help of a pack of wolves, a bear, and a black panther.\r\n\r\nDirector: Jon Favreau\r\nWriters: Justin Marks (screenplay), Rudyard Kipling (book)\r\nStars: Neel Sethi, Bill Murray, Ben Kingsley \r\nGenres: Adventure | Drama | Family | Fantasy\r\nCountry: USA\r\nLanguage: English\r\n\r\n\r\nP R E S E N T S . . . . \r\n\r\nThe.Jungle.Book.2016.CAM.XviD.AC3-VAiN\r\n\r\niMDB........: http://www.imdb.com/title/tt3040964/\r\n\r\nPLOT........: An orphan boy is raised in the jungle with the help of a pack of wolves, a bear, and a black panther.\r\n\r\n\r\nT E C H N i C A L . i N F O . . .\r\n\r\nBasic Information\r\nFormat                      : MPEG-4 Visual\r\nFormat profile              : Advanced   \r\nFormat settings, BVOP       : 2\r\nFormat settings, QPel       : No\r\nFormat settings, GMC        : No warppoints\r\nFormat settings, Matrix     : Default (H.263)\r\nMuxing mode                 : Packed bitstream\r\nCodec ID                    : XVID\r\nCodec ID/Hint               : XviD\r\nDuration                    : 1h 29mn\r\nBit rate                    : 1 984 Kbps\r\nWidth                       : 720 pixels\r\nHeight                      : 320 pixels\r\nDisplay aspect ratio        : 2.25:1\r\nFrame rate                  : 29.970 (29970/1000) fps\r\nColor space                 : YUV\r\nChroma subsampling          : 4:2:0\r\nBit depth                   : 8 bits\r\nScan type                   : Progressive\r\nCompression mode            : Lossy\r\nBits/(Pixel*Frame)          : 0.287\r\nStream size                 : 1.24 GiB (91%)\r\nWriting library             : XviD 64\r\n\r\nAudio\r\nID                          : 1\r\nFormat                      : AC-3\r\nFormat/Info                 : Audio Coding 3\r\nMode extension              : CM (complete main)\r\nFormat settings, Endianness : Big\r\nCodec ID                    : 2000\r\nDuration                    : 1h 29mn\r\nBit rate mode               : Constant\r\nBit rate                    : 192 Kbps\r\nChannel(s)                  : 2 channels\r\nChannel positions           : Front: L R\r\nSampling rate               : 48.0 KHz\r\nFrame rate                  : 31.250 fps (1536 spf)\r\nCompression mode            : Lossy\r\nStream size                 : 123 MiB (9%)\r\nAlignment                   : Aligned on interleaves\r\nInterleave, duration        : 33 ms (1.00 video frame)\r\nInterleave, preload duratio : 512 ms\r\n\r\n\r\n\r\n\r\nE N C O D E R S . N O T E S . . .       \r\n\r\nSOURCE......: Russian + UnKnOwN + A.C.A.B.\r\n............: \r\nSAMPLE......: Yippers \r\nADDED NOTE..: resized, adjusted rgb, lvls, sharp and a few other filter. audio is ok it's just a cam though. ran that thru a few filters to try to help out.\r\nbeware there are few dark spots in the movie, they go into a cave and gets pretty dark. took screens to try to represent encode w/ the gud n' bad... \r\n\r\nV/6 A/4.5 M/6 just not my cuppa tea.... \r\n\r\nenjoy or don't. sample is there for all to see\r\n\r\n \nhttp://extraimago.com/image/aqhf \nhttp://extraimago.com/image/aqb8 \nhttp://extraimago.com/image/aqba \nhttp://extraimago.com/image/aqbw \nhttp://extraimago.com/image/aqb2 \nhttp://extraimago.com/image/aqbN \nhttp://extraimago.com/image/aqbT","torrent":{"xt":"urn:btih:c8a5c3d0e9810d886f0f2b39caf44e523b1ac2c0","amp;dn":"The.Jungle.Book.2016.CAM.XviD.AC3-VAiN","amp;tr":["udp%3A%2F%2Ftracker.leechers-paradise.org%3A6969","udp%3A%2F%2Fzer0day.ch%3A1337","udp%3A%2F%2Fopen.demonii.com%3A1337","udp%3A%2F%2Ftracker.coppersurfer.tk%3A6969","udp%3A%2F%2Fexodus.desync.com%3A6969"],"infoHash":"c8a5c3d0e9810d886f0f2b39caf44e523b1ac2c0","infoHashBuffer":{"type":"Buffer","data":[200,165,195,208,233,129,13,136,111,15,43,57,202,244,78,82,59,26,194,192]},"announce":[],"urlList":[]}}